<svg xmlns="http://www.w3.org/2000/svg" viewBox="0 0 500 500"><g id="freepik--Floor--inject-92"><path d="M407.7,260.39c-88.05-50.83-230.34-50.83-317.81,0s-87,133.26,1,184.09,230.34,50.84,317.82,0S495.75,311.23,407.7,260.39Z" style="fill:#f5f5f5"></path></g><g id="freepik--Shadows--inject-92"><path d="M437.83,315.37c-7.92-4.57-20.73-4.57-28.6,0s-7.84,12,.09,16.57,20.73,4.58,28.61,0S445.76,320,437.83,315.37Z" style="fill:#e6e6e6"></path><path d="M322.37,239.84l-12.95-7.48a6.47,6.47,0,0,0-6.48,0L282.7,244.09l-11.53-6.66a6.47,6.47,0,0,0-6.48,0L47.62,362.75a2.17,2.17,0,0,0,0,3.74l13,7.48a6.47,6.47,0,0,0,6.48,0L98,356.12l12.31,7.1a6.47,6.47,0,0,0,6.48,0L154,341.66l10.55,6.09a6.49,6.49,0,0,0,6.48,0L277.53,286a2.16,2.16,0,0,0,0-3.74l-11-6.34,55.82-32.35A2.16,2.16,0,0,0,322.37,239.84Z" style="fill:#e6e6e6"></path><path d="M366.39,345.75c-25.34-14.63-66.29-14.63-91.46,0-22.25,12.92-24.72,32.94-7.52,47.52-13.88-.86-28.26,1.78-38.86,7.94-18.6,10.82-18.5,28.34.22,39.15s49,10.82,67.59,0c14.8-8.6,17.75-21.45,8.91-31.79,21.33,3.09,44.81-.19,61.42-9.85C391.86,384.09,391.73,360.38,366.39,345.75Z" style="fill:#e6e6e6"></path></g><g id="freepik--Plant--inject-92"><path d="M442.77,289l-19.19.56L404.39,289c-.83,13,1.7,26.17,5.19,32.62h0a8.79,8.79,0,0,0,3.8,3.86c5.66,3.27,14.81,3.27,20.44,0a8.55,8.55,0,0,0,3.8-4C441.09,315.07,443.59,301.94,442.77,289Z" style="fill:#fff"></path><path d="M437.1,281.18c7.52,4.34,7.56,11.38.09,15.72s-19.62,4.34-27.14,0-7.56-11.38-.09-15.72S429.58,276.84,437.1,281.18Z" style="fill:#ebebeb"></path><path d="M434.13,282.91c5.86,3.39,5.9,8.88.07,12.26s-15.31,3.39-21.17,0-5.9-8.87-.07-12.26S428.26,279.52,434.13,282.91Z" style="fill:#e0e0e0"></path><g style="opacity:0.15"><path d="M434.13,282.91c5.86,3.39,5.9,8.88.07,12.26s-15.31,3.39-21.17,0-5.9-8.87-.07-12.26S428.26,279.52,434.13,282.91Z"></path></g><path d="M455.13,207.16c-43.25,14.16-43.64,43.09-33.89,63.69,2.46,4.17,9.9,6.41,16.38-19.21l-11.36,1.45,13.23-6.71,3.44-10.28-11,.82,14-5.89A207,207,0,0,1,455.13,207.16Z" style="fill:#5965E0"></path><path d="M455.13,207.16c-43.25,14.16-43.64,43.09-33.89,63.69,2.46,4.17,9.9,6.41,16.38-19.21l-11.36,1.45,13.23-6.71,3.44-10.28-11,.82,14-5.89A207,207,0,0,1,455.13,207.16Z" style="opacity:0.2"></path><path d="M455.13,207.16c-43.25,14.16-43.64,43.09-33.89,63.69,2.46,4.17,9.9,6.41,16.38-19.21l-11.36,1.45,13.23-6.71,3.44-10.28-11,.82,14-5.89A207,207,0,0,1,455.13,207.16Z" style="fill:#fff;opacity:0.2"></path><path d="M442.9,214.39c-22.81,17.31-24.87,37.15-18.42,57.87C422.2,254,419.73,235.57,442.9,214.39Z" style="fill:#fff"></path><path d="M381.88,236.54c42.63,6,47.8,32.88,42.14,53.69-1.59,4.29-8.15,7.62-18.44-15.17l10.82-.53-13.44-4-4.91-9,10.41-1.07-14-3.16A196.31,196.31,0,0,0,381.88,236.54Z" style="fill:#5965E0"></path><path d="M381.88,236.54c42.63,6,47.8,32.88,42.14,53.69-1.59,4.29-8.15,7.62-18.44-15.17l10.82-.53-13.44-4-4.91-9,10.41-1.07-14-3.16A196.31,196.31,0,0,0,381.88,236.54Z" style="fill:#fff;opacity:0.2"></path><path d="M381.88,236.54c42.63,6,47.8,32.88,42.14,53.69-1.59,4.29-8.15,7.62-18.44-15.17l10.82-.53-13.44-4-4.91-9,10.41-1.07-14-3.16A196.31,196.31,0,0,0,381.88,236.54Z" style="opacity:0.1"></path><path d="M394.48,241.25c24.11,12.33,29.32,30.47,26.77,50.83C420.34,274.72,419.57,257.13,394.48,241.25Z" style="fill:#fff"></path><path d="M467.6,246.62c-39.09.64-46.76,24.28-44,43.67,1,4,6.5,7.77,18.32-11.61L432.24,277l12.57-2.15,5.43-7.56L441,265.15l13-1.28A178.16,178.16,0,0,1,467.6,246.62Z" style="fill:#5965E0"></path><path d="M455.73,249.45c-23.12,8.41-29.85,24.18-29.82,42.82C428.67,276.72,431.33,261,455.73,249.45Z" style="fill:#fff"></path><path d="M467.6,246.62c-39.09.64-46.76,24.28-44,43.67,1,4,6.5,7.77,18.32-11.61L432.24,277l12.57-2.15,5.43-7.56L441,265.15l13-1.28A178.16,178.16,0,0,1,467.6,246.62Z" style="fill:#fff;opacity:0.2"></path></g><g id="freepik--Device--inject-92"><path d="M61.22,362.56h0l-.07,0Z" style="fill:#37474f"></path><path d="M55.89,356.66l-.45-159.82c0-5.33,3.73-11.82,8.37-14.5L272.29,62c3.21-1.85,6-1.39,7.43.85h0c-2.08-3.85-5.59-7.14-12.2-7.34h0a7,7,0,0,0-4.5,1.08L54.53,176.94c-4.64,2.68-8.38,9.17-8.37,14.5l.45,159.82a7.34,7.34,0,0,0,1,4c2.4,4.71,6,7.91,13.18,7.3C57.93,362.75,55.9,360.56,55.89,356.66Z" style="fill:#37474f"></path><path d="M280.72,66.77a7.39,7.39,0,0,0-1-3.95c-1.42-2.24-4.22-2.7-7.43-.85L63.81,182.34c-4.64,2.68-8.39,9.17-8.37,14.5l.45,159.82c0,3.9,2,6.09,5,5.93l.31,0,.07,0a8.08,8.08,0,0,0,3.09-1.1L272.8,241.08c4.63-2.67,8.38-9.16,8.37-14.49Z" style="fill:#455a64"></path><path d="M272.31,70.34c.62-.36,1.12-.08,1.12.64l.46,159.81a2.45,2.45,0,0,1-1.12,1.93L64.29,353.09c-.62.36-1.13.07-1.13-.63l-.45-159.82a2.48,2.48,0,0,1,1.12-1.94Z" style="fill:#5965E0"></path></g><g id="freepik--screen-3--inject-92"><path d="M342.48,53.72c0-1.89-.68-3.21-1.77-3.81h0l-6.57-4h0c-1.08-.77-2.66-.75-4.41.26L248,93.38a12.91,12.91,0,0,0-5.87,10.16L242.48,221a4.15,4.15,0,0,0,1.68,3.75h0l6.88,4.17h0c1.07.63,2.56.55,4.21-.4L337,181.32a13,13,0,0,0,5.87-10.17Z" style="fill:#5965E0"></path><path d="M342.48,53.72c0-1.89-.68-3.21-1.77-3.81h0l-6.57-4h0c-1.08-.77-2.66-.75-4.41.26L248,93.38a12.91,12.91,0,0,0-5.87,10.16L242.48,221a4.15,4.15,0,0,0,1.68,3.75h0l6.88,4.17h0c1.07.63,2.56.55,4.21-.4L337,181.32a13,13,0,0,0,5.87-10.17Z" style="fill:#fff;opacity:0.7000000000000001"></path><path d="M334.14,45.94h0c-1.08-.77-2.66-.75-4.41.26L248,93.38a12,12,0,0,0-4.18,4.42l6.94,4a11.84,11.84,0,0,1,4.09-4.27l81.71-47.18c1.61-.93,3.06-1,4.13-.44h0Z" style="fill:#fff;opacity:0.5"></path><path d="M242.15,103.54,242.48,221a4.15,4.15,0,0,0,1.68,3.75h0l6.88,4.17h0a4.11,4.11,0,0,1-1.7-3.76L249,107.69a11.94,11.94,0,0,1,1.78-5.89l-6.94-4A11.85,11.85,0,0,0,242.15,103.54Z" style="opacity:0.1"></path><path d="M292.3,86.73c.43-.25.79,0,.79.45a1.72,1.72,0,0,1-.78,1.35l-4.94,2.85v3l4.3-2.48c.43-.25.79,0,.79.46a1.72,1.72,0,0,1-.78,1.34l-4.3,2.48v3.09l5-2.89c.43-.25.79-.05.79.45a1.69,1.69,0,0,1-.78,1.35l-5.89,3.4c-.5.29-.89.07-.89-.5l0-9.46a1.9,1.9,0,0,1,.88-1.52Z" style="fill:#fff"></path><path d="M313.83,74.13a4.62,4.62,0,0,1,3.18-.76c.19,0,.38.18.38.58a1.78,1.78,0,0,1-.82,1.41.64.64,0,0,1-.46.11,3.34,3.34,0,0,0-2.3.47,2.94,2.94,0,0,0-1.63,2.3c0,.92.46,1.05,2.39.46,2.12-.63,3.21-.39,3.22,1.51v0a6.71,6.71,0,0,1-3.57,5.49,4.93,4.93,0,0,1-3.76.73c-.2,0-.35-.24-.35-.58a1.8,1.8,0,0,1,.83-1.41.61.61,0,0,1,.51-.11,3.3,3.3,0,0,0,2.81-.44A3.21,3.21,0,0,0,316,81.46v0c0-.82-.41-1-2.27-.45-2.12.63-3.33.61-3.34-1.52A6.67,6.67,0,0,1,313.83,74.13Z" style="fill:#fff"></path><path d="M301.83,81.11c.44-.26.76-.11.89.29L305,88l2.28-9.24a2,2,0,0,1,.85-1.22c.47-.27.88-.08.88.46a2,2,0,0,1-.09.47L306,89.66a2.17,2.17,0,0,1-.91,1.36l-.18.1a.54.54,0,0,1-.89-.31l-2.26-6.22-2.2,8.79a2.18,2.18,0,0,1-.91,1.36l-.17.1a.57.57,0,0,1-.92-.3l-3-7.82a1,1,0,0,1-.07-.35,1.93,1.93,0,0,1,.89-1.51c.43-.24.76-.13.88.24l2.32,6.56,2.24-9.16a2.07,2.07,0,0,1,.88-1.32Z" style="fill:#fff"></path><polygon points="322.36 156.6 333.14 150.37 333.14 147.03 322.35 153.26 322.36 156.6" style="fill:#5965E0"></polygon><polygon points="333.17 160.05 302 178.05 302.01 181.39 333.18 163.39 333.17 160.05" style="fill:#5965E0"></polygon><polygon points="322.27 125.25 333.06 119.02 333.05 115.68 322.26 121.91 322.27 125.25" style="fill:#5965E0"></polygon><polygon points="291.23 181.09 333.16 156.88 333.15 153.54 291.22 177.75 291.23 181.09" style="fill:#5965E0"></polygon><polygon points="307.08 140.54 333.07 125.53 333.07 122.19 307.07 137.2 307.08 140.54" style="fill:#5965E0"></polygon><polygon points="292.86 155.28 333.09 132.04 333.08 128.71 292.85 151.94 292.86 155.28" style="fill:#5965E0"></polygon><polygon points="259.31 202.7 259.32 206.04 296.96 184.3 296.95 180.97 259.31 202.7" style="fill:#5965E0"></polygon><polygon points="286.37 180.55 259.29 196.19 259.3 199.53 286.38 183.89 286.37 180.55" style="fill:#5965E0"></polygon><polygon points="291.87 174.2 317.45 159.43 317.44 156.09 291.86 170.86 284.72 174.98 259.27 189.68 259.28 193.01 284.73 178.32 291.87 174.2" style="fill:#5965E0"></polygon><polygon points="284.63 143.64 284.64 146.97 317.36 128.08 317.35 124.75 284.63 143.64" style="fill:#5965E0"></polygon><polygon points="300.08 113.19 332.99 94.19 332.98 90.85 300.07 109.85 300.08 113.19" style="fill:#5965E0"></polygon><polygon points="304.32 151.84 259.24 177.86 259.25 181.2 304.33 155.18 304.32 151.84" style="fill:#5965E0"></polygon><polygon points="287.8 154.85 259.22 171.35 259.23 174.69 287.8 158.19 287.8 154.85" style="fill:#5965E0"></polygon><polygon points="302.22 140 259.2 164.84 259.21 168.18 302.23 143.34 302.22 140" style="fill:#5965E0"></polygon><polygon points="279.49 146.6 259.18 158.33 259.19 161.67 279.5 149.94 279.49 146.6" style="fill:#5965E0"></polygon><polygon points="322.18 93.9 323.81 92.96 332.97 87.67 332.96 84.33 323.8 89.62 322.17 90.56 284.54 112.29 284.55 115.63 322.18 93.9" style="fill:#5965E0"></polygon><polygon points="287.72 130.02 259.15 146.52 259.16 149.86 287.73 133.36 287.72 130.02" style="fill:#5965E0"></polygon><polygon points="308.21 111.67 259.13 140 259.14 143.35 308.22 115.02 308.21 111.67" style="fill:#5965E0"></polygon><polygon points="295.22 112.64 259.11 133.49 259.12 136.84 295.23 115.99 295.22 112.64" style="fill:#5965E0"></polygon><polygon points="259.32 209.21 259.33 212.55 271.7 205.41 271.69 202.07 259.32 209.21" style="fill:#5965E0"></polygon><polygon points="279.4 115.26 259.09 126.98 259.1 130.32 279.41 118.6 279.4 115.26" style="fill:#5965E0"></polygon><polygon points="312.88 112.32 333 100.7 333 97.36 312.87 108.97 312.88 112.32" style="fill:#5965E0"></polygon><path d="M282.16,92.5c.48-.28.87-.06.87.48l0,9.66a1.87,1.87,0,0,1-.86,1.49l-.07,0a.67.67,0,0,1-.91-.08l-5.17-4.68,0,7.29a1.89,1.89,0,0,1-.85,1.48c-.49.28-.88.06-.88-.48l0-9.64a1.91,1.91,0,0,1,.88-1.53l.19-.1a.68.68,0,0,1,.91,0l5,4.56,0-7.06A1.9,1.9,0,0,1,282.16,92.5Z" style="fill:#fff"></path><g style="opacity:0.30000000000000004"><polygon points="322.36 156.6 333.14 150.37 333.14 147.03 322.35 153.26 322.36 156.6" style="fill:#fff"></polygon><polygon points="333.17 160.05 302 178.05 302.01 181.39 333.18 163.39 333.17 160.05" style="fill:#fff"></polygon><polygon points="322.27 125.25 333.06 119.02 333.05 115.68 322.26 121.91 322.27 125.25" style="fill:#fff"></polygon><polygon points="291.23 181.09 333.16 156.88 333.15 153.54 291.22 177.75 291.23 181.09" style="fill:#fff"></polygon><polygon points="307.08 140.54 333.07 125.53 333.07 122.19 307.07 137.2 307.08 140.54" style="fill:#fff"></polygon><polygon points="292.86 155.28 333.09 132.04 333.08 128.71 292.85 151.94 292.86 155.28" style="fill:#fff"></polygon><polygon points="259.31 202.7 259.32 206.04 296.96 184.3 296.95 180.97 259.31 202.7" style="fill:#fff"></polygon><polygon points="286.37 180.55 259.29 196.19 259.3 199.53 286.38 183.89 286.37 180.55" style="fill:#fff"></polygon><polygon points="291.87 174.2 317.45 159.43 317.44 156.09 291.86 170.86 284.72 174.98 259.27 189.68 259.28 193.01 284.73 178.32 291.87 174.2" style="fill:#fff"></polygon><polygon points="284.63 143.64 284.64 146.97 317.36 128.08 317.35 124.75 284.63 143.64" style="fill:#fff"></polygon><polygon points="300.08 113.19 332.99 94.19 332.98 90.85 300.07 109.85 300.08 113.19" style="fill:#fff"></polygon><polygon points="304.32 151.84 259.24 177.86 259.25 181.2 304.33 155.18 304.32 151.84" style="fill:#fff"></polygon><polygon points="287.8 154.85 259.22 171.35 259.23 174.69 287.8 158.19 287.8 154.85" style="fill:#fff"></polygon><polygon points="302.22 140 259.2 164.84 259.21 168.18 302.23 143.34 302.22 140" style="fill:#fff"></polygon><polygon points="279.49 146.6 259.18 158.33 259.19 161.67 279.5 149.94 279.49 146.6" style="fill:#fff"></polygon><polygon points="322.18 93.9 323.81 92.96 332.97 87.67 332.96 84.33 323.8 89.62 322.17 90.56 284.54 112.29 284.55 115.63 322.18 93.9" style="fill:#fff"></polygon><polygon points="287.72 130.02 259.15 146.52 259.16 149.86 287.73 133.36 287.72 130.02" style="fill:#fff"></polygon><polygon points="308.21 111.67 259.13 140 259.14 143.35 308.22 115.02 308.21 111.67" style="fill:#fff"></polygon><polygon points="295.22 112.64 259.11 133.49 259.12 136.84 295.23 115.99 295.22 112.64" style="fill:#fff"></polygon><polygon points="259.32 209.21 259.33 212.55 271.7 205.41 271.69 202.07 259.32 209.21" style="fill:#fff"></polygon><polygon points="279.4 115.26 259.09 126.98 259.1 130.32 279.41 118.6 279.4 115.26" style="fill:#fff"></polygon><polygon points="312.88 112.32 333 100.7 333 97.36 312.87 108.97 312.88 112.32" style="fill:#fff"></polygon></g></g><g id="freepik--screen-1--inject-92"><path d="M169.78,89.07c0-1.89-.68-3.2-1.77-3.8h0l-6.57-4h0c-1.09-.78-2.66-.76-4.41.26L75.31,128.73a13,13,0,0,0-5.87,10.17l.34,117.43a4.15,4.15,0,0,0,1.67,3.75h0l6.88,4.17h0c1.07.63,2.56.55,4.2-.4l81.72-47.18a12.92,12.92,0,0,0,5.86-10.16Z" style="fill:#5965E0"></path><path d="M169.78,89.07c0-1.89-.68-3.2-1.77-3.8h0l-6.57-4h0c-1.09-.78-2.66-.76-4.41.26L75.31,128.73a13,13,0,0,0-5.87,10.17l.34,117.43a4.15,4.15,0,0,0,1.67,3.75h0l6.88,4.17h0c1.07.63,2.56.55,4.2-.4l81.72-47.18a12.92,12.92,0,0,0,5.86-10.16Z" style="fill:#fff;opacity:0.7000000000000001"></path><path d="M88.26,137.26c2.35-1.36,4.27-.26,4.28,2.44a9.41,9.41,0,0,1-4.25,7.36c-2.36,1.35-4.27.26-4.28-2.44A9.38,9.38,0,0,1,88.26,137.26Z" style="fill:#5965E0"></path><polygon points="116.73 122.04 116.75 125.72 96.82 137.22 96.81 133.55 116.73 122.04" style="fill:#5965E0"></polygon><polygon points="107.72 133.62 107.72 135.84 96.84 142.12 96.83 139.9 107.72 133.62" style="fill:#5965E0"></polygon><polygon points="127.63 122.12 127.64 124.34 110.09 134.47 110.08 132.25 127.63 122.12" style="fill:#5965E0"></polygon><path d="M88.9,226a1.17,1.17,0,0,1,1.18-.12c.66.37.66,1.59,0,2.71l-.42.73-2.35,4.07L85,232l-.42-.25c-.66-.37-.66-1.58,0-2.71a3.37,3.37,0,0,1,1.18-1.24,1.19,1.19,0,0,1,1.18-.12l.42.24.43-.73A3.43,3.43,0,0,1,88.9,226Z" style="fill:#5965E0"></path><path d="M117.45,144.9c3.93-2.27,7.13-.44,7.15,4.07a15.65,15.65,0,0,1-7.11,12.3c-3.93,2.27-7.12.44-7.14-4.08A15.67,15.67,0,0,1,117.45,144.9Z" style="fill:#5965E0"></path><polygon points="142.36 137.52 158.76 146.87 158.85 177.6 87.74 218.65 87.69 201.27 106.27 169.09 117.76 175.63 111.71 190.61 119.71 176.75 142.36 137.52" style="fill:#5965E0"></polygon><path d="M84,153.76l78.18-45.14.21,71L84.21,224.75Zm74.84,23.84-.09-30.73-16.4-9.35-22.65,39.23-8,13.86,6.05-15-11.49-6.54L87.69,201.27l0,17.38,71.11-41.05m-41.4-32.7a15.67,15.67,0,0,0-7.1,12.29c0,4.52,3.21,6.35,7.14,4.08A15.65,15.65,0,0,0,124.6,149c0-4.51-3.22-6.34-7.15-4.07" style="fill:#fff"></path><path d="M161.44,81.29h0c-1.09-.78-2.66-.76-4.41.26L75.31,128.73a12.16,12.16,0,0,0-4.18,4.43l7,4a11.9,11.9,0,0,1,4.08-4.27l81.71-47.17a4.19,4.19,0,0,1,4.14-.44h0Z" style="fill:#fff;opacity:0.5"></path><path d="M69.44,138.9l.34,117.43a4.15,4.15,0,0,0,1.67,3.75h0l6.88,4.17h0a4.12,4.12,0,0,1-1.7-3.77l-.34-117.43a12,12,0,0,1,1.79-5.9l-7-4A12,12,0,0,0,69.44,138.9Z" style="opacity:0.1"></path><polygon points="160.16 196.54 160.16 199.64 110.54 228.29 110.53 225.19 160.16 196.54" style="fill:#5965E0"></polygon><polygon points="130.11 203.91 130.12 207.01 117.13 214.51 117.12 211.41 130.11 203.91" style="fill:#5965E0"></polygon><polygon points="134.9 224.79 134.91 227.89 85.29 256.54 85.28 253.44 134.9 224.79" style="fill:#5965E0"></polygon><polygon points="160.18 203.36 160.18 206.47 85.27 249.72 85.26 246.61 160.18 203.36" style="fill:#5965E0"></polygon><polygon points="113.54 213.48 113.55 216.58 93.77 228 93.76 224.9 113.54 213.48" style="fill:#5965E0"></polygon><polygon points="106.1 226.7 106.11 230.84 85.25 242.89 85.24 238.75 106.1 226.7" style="fill:#5965E0"></polygon></g><g id="freepik--screen-2--inject-92"><path d="M251.76,135c0-1.89-.68-3.21-1.77-3.81h0l-6.57-4h0c-1.08-.78-2.66-.76-4.41.25L157.3,174.69a12.92,12.92,0,0,0-5.87,10.17l.33,131.59a4.17,4.17,0,0,0,1.67,3.75h0l6.88,4.17h0c1.07.64,2.56.56,4.21-.39l81.71-47.18a13,13,0,0,0,5.87-10.16Z" style="fill:#5965E0"></path><path d="M251.76,135c0-1.89-.68-3.21-1.77-3.81h0l-6.57-4h0c-1.08-.78-2.66-.76-4.41.25L157.3,174.69a12.92,12.92,0,0,0-5.87,10.17l.33,131.59a4.17,4.17,0,0,0,1.67,3.75h0l6.88,4.17h0c1.07.64,2.56.56,4.21-.39l81.71-47.18a13,13,0,0,0,5.87-10.16Z" style="fill:#fff;opacity:0.6000000000000001"></path><polygon points="225.13 151.68 225.15 159.77 181.35 185.06 181.33 176.97 225.13 151.68" style="fill:#5965E0"></polygon><path d="M243.42,127.25h0c-1.08-.78-2.66-.76-4.41.25L157.3,174.69a12,12,0,0,0-4.18,4.42l6.94,4a11.84,11.84,0,0,1,4.09-4.27l81.71-47.18a4.22,4.22,0,0,1,4.13-.44h0Z" style="fill:#fff;opacity:0.5"></path><path d="M151.43,184.86l.33,131.59a4.17,4.17,0,0,0,1.67,3.75h0l6.88,4.17h0c-1.05-.61-1.7-1.91-1.7-3.76L158.28,189a12,12,0,0,1,1.78-5.9l-6.94-4A11.86,11.86,0,0,0,151.43,184.86Z" style="opacity:0.1"></path><polygon points="244.18 154.57 166 199.71 166.2 297.68 244.38 252.55 244.18 154.57" style="fill:#fff"></polygon><path d="M225.6,269.65c3.3-1.9,6-.37,6,3.41a13.09,13.09,0,0,1-6,10.3l-30.27,17.48c-3.29,1.9-6,.38-6-3.41a13.13,13.13,0,0,1,6-10.3Z" style="fill:#5965E0"></path><path d="M202.24,290.5c.36-.07.61,0,.61.51h0a2,2,0,0,1-1.14,1.63l-1.15.67c-.15.08-.27,0-.27-.16v-2.92a.61.61,0,0,1,.27-.47l1.11-.64q.54-.3.81-.15a.49.49,0,0,1,.21.47h0A1.62,1.62,0,0,1,202.24,290.5Zm.07.76h0c0-.3-.21-.36-.63-.12l-.86.5v1l.9-.52a1,1,0,0,0,.59-.83m-1.5-1.09v.95l.74-.43a1,1,0,0,0,.58-.82h0c0-.28-.2-.34-.55-.14l-.78.45" style="fill:#fff"></path><path d="M205.79,286.72c.15-.08.26,0,.27.16v1.73a2.63,2.63,0,0,1-1.32,2.35c-.81.46-1.32.23-1.32-.8V288.4a.53.53,0,0,1,.27-.46c.15-.09.27,0,.27.15v1.73c0,.66.3.84.78.56a1.57,1.57,0,0,0,.78-1.43v-1.76A.59.59,0,0,1,205.79,286.72Z" style="fill:#fff"></path><path d="M209.07,284.82c.16-.09.27,0,.27.15a.59.59,0,0,1-.07.26l-1.05,2.27v1.11a.61.61,0,0,1-.27.47c-.15.08-.27,0-.27-.16v-1.09l-1.07-1.06a.3.3,0,0,1-.07-.18.58.58,0,0,1,.28-.46.18.18,0,0,1,.26,0l.87.93.87-1.93A.69.69,0,0,1,209.07,284.82Z" style="fill:#fff"></path><path d="M213.61,282.2c.15-.08.27,0,.27.15v3a.56.56,0,0,1-.26.46l0,0a.21.21,0,0,1-.28,0l-1.6-1.44v2.24a.57.57,0,0,1-.27.46c-.15.09-.27,0-.27-.15v-3a.59.59,0,0,1,.28-.47l.05,0a.23.23,0,0,1,.29,0l1.55,1.41v-2.18A.61.61,0,0,1,213.61,282.2Z" style="fill:#fff"></path><path d="M216.16,280.7c1-.55,1.61-.1,1.61.89a3.43,3.43,0,0,1-1.61,2.78c-.94.55-1.61.1-1.61-.89A3.46,3.46,0,0,1,216.16,280.7Zm1,1.24h0c0-.69-.44-1-1-.66a2.3,2.3,0,0,0-1,1.86h0c0,.68.43,1,1,.65a2.25,2.25,0,0,0,1-1.85" style="fill:#fff"></path><path d="M220.37,278.29c.14-.08.23,0,.27.09l.71,2,.7-2.85a.66.66,0,0,1,.26-.38c.15-.09.28,0,.28.14a1,1,0,0,1,0,.15l-.9,3.46a.66.66,0,0,1-.28.42l-.06,0a.17.17,0,0,1-.28-.1l-.69-1.91-.68,2.71a.69.69,0,0,1-.28.42l-.06,0a.17.17,0,0,1-.28-.09l-.92-2.42s0-.06,0-.11a.62.62,0,0,1,.27-.46c.14-.08.24,0,.27.07l.72,2,.69-2.83a.67.67,0,0,1,.27-.41Z" style="fill:#fff"></path><polygon points="229.36 190.87 217.74 184.22 181.29 205.06 177.94 259.23 195.98 269.59 232.43 248.75 229.36 190.87" style="fill:#5965E0"></polygon><polygon points="181.29 205.06 177.94 259.23 195.98 269.59 192.91 211.71 181.29 205.06" style="opacity:0.2"></polygon><polygon points="229.36 190.87 217.74 184.22 181.29 205.06 177.94 259.23 195.98 269.59 232.43 248.75 229.36 190.87" style="fill:#fff;opacity:0.31"></polygon><path d="M196.77,224.11l16-9.24c-1.36,4.3-4.42,8.52-8,10.58S198.15,226.83,196.77,224.11Z" style="fill:#5965E0"></path><path d="M212.77,214.86l15-8.68a18.25,18.25,0,0,1-7.5,9.94C217,218.05,214.07,217.41,212.77,214.86Z" style="fill:#5965E0"></path><path d="M227.8,206.17l16-9.24c-1.36,4.3-4.42,8.52-8,10.58S229.18,208.88,227.8,206.17Z" style="fill:#5965E0"></path><path d="M243.77,196.93l15.62-9c-1.32,4.2-4.31,8.32-7.79,10.33S245.12,199.59,243.77,196.93Z" style="fill:#5965E0"></path><path d="M259.39,187.9l15.21-8.78a18.36,18.36,0,0,1-7.58,10C263.62,191.13,260.71,190.48,259.39,187.9Z" style="fill:#5965E0"></path><g style="opacity:0.1"><path d="M196.77,224.11l16-9.24c-1.36,4.3-4.42,8.52-8,10.58S198.15,226.83,196.77,224.11Z" style="fill:#fff"></path><path d="M212.77,214.86l15-8.68a18.25,18.25,0,0,1-7.5,9.94C217,218.05,214.07,217.41,212.77,214.86Z" style="fill:#fff"></path><path d="M227.8,206.17l16-9.24c-1.36,4.3-4.42,8.52-8,10.58S229.18,208.88,227.8,206.17Z" style="fill:#fff"></path><path d="M243.77,196.93l15.62-9c-1.32,4.2-4.31,8.32-7.79,10.33S245.12,199.59,243.77,196.93Z" style="fill:#fff"></path><path d="M259.39,187.9l15.21-8.78a18.36,18.36,0,0,1-7.58,10C263.62,191.13,260.71,190.48,259.39,187.9Z" style="fill:#fff"></path></g><polygon points="166 199.71 196.77 224.13 212.77 214.87 181.73 190.63 166 199.71" style="fill:#5965E0"></polygon><polygon points="196.77 181.95 227.79 206.18 243.79 196.94 212.78 172.7 196.77 181.95" style="fill:#5965E0"></polygon><polygon points="181.73 190.63 212.77 214.87 227.79 206.18 196.77 181.95 181.73 190.63" style="fill:#5965E0"></polygon><polygon points="228.4 163.69 212.78 172.7 243.79 196.94 259.39 187.91 228.4 163.69" style="fill:#5965E0"></polygon><polygon points="274.61 179.11 244.18 154.57 228.4 163.69 259.39 187.91 274.61 179.11" style="fill:#5965E0"></polygon><polygon points="166 199.81 196.78 224.22 212.78 214.97 181.74 190.72 166 199.81" style="fill:#fff;opacity:0.4"></polygon><polygon points="196.77 181.95 227.79 206.18 243.79 196.94 212.78 172.7 196.77 181.95" style="fill:#fff;opacity:0.4"></polygon><polygon points="181.73 190.63 212.77 214.87 227.79 206.18 196.77 181.95 181.73 190.63" style="fill:#fff;opacity:0.30000000000000004"></polygon><polygon points="228.4 163.69 212.78 172.7 243.79 196.94 259.39 187.91 228.4 163.69" style="fill:#fff;opacity:0.30000000000000004"></polygon><polygon points="274.61 179.11 244.18 154.57 228.4 163.69 259.39 187.91 274.61 179.11" style="fill:#fff;opacity:0.4"></polygon></g><g id="freepik--Character--inject-92"><path d="M287.17,295.34c-8.64,6-18.37,10.15-25.59,18.2-13.48,15-13.8,39.2-3.21,56.39s30.28,27.52,50.32,29.88c21,2.48,43.11-3.33,59.61-16.61s27-34,27-55.2-10.86-42.27-28.6-53.84c-16.18-10.55-39.44-13.56-55.68-1.49-8.21,6.11-13.68,15.12-21.87,21.25C288.5,294.4,287.84,294.88,287.17,295.34Z" style="fill:#5965E0"></path><path d="M287.17,295.34c-8.64,6-18.37,10.15-25.59,18.2-13.48,15-13.8,39.2-3.21,56.39s30.28,27.52,50.32,29.88c21,2.48,43.11-3.33,59.61-16.61s27-34,27-55.2-10.86-42.27-28.6-53.84c-16.18-10.55-39.44-13.56-55.68-1.49-8.21,6.11-13.68,15.12-21.87,21.25C288.5,294.4,287.84,294.88,287.17,295.34Z" style="fill:#fff;opacity:0.30000000000000004"></path><path d="M384,325.1a61.8,61.8,0,0,0-52.74-60,44.39,44.39,0,0,0-6,1,60.28,60.28,0,0,1,57.07,59.05c.38,19.71-9.26,39.8-25.8,53.74-13,10.93-30.17,18.17-49.1,20.78l1.21.16c1.71.2,3.41.34,5.13.43,16.81-3.26,32-10.19,43.81-20.12C374.54,365.86,384.4,345.29,384,325.1Z" style="fill:#fff"></path><path d="M290.69,383.39l.06-.43A22.73,22.73,0,0,1,309.18,364,71.88,71.88,0,0,0,332.79,355c5.16-3.12,10-6.94,15.82-8.63a25.82,25.82,0,0,1,17.06,1c-4.87-5.11-13.21-7.36-19.87-5.05,4.61-7.06,8.67-14.66,10.26-22.95s.46-17.37-4.53-24.16a24.32,24.32,0,0,0-37.54-2c-4.95,5.41-7.74,13-11,19.6-2.33,4.72-4.74,9.55-8.59,13.14-5.8,5.43-14.15,7.39-20.16,12.58-6.82,5.89-9.77,15.3-9.8,24.31a71.84,71.84,0,0,0,2.64,18,68.27,68.27,0,0,0,24.68,15.08A26.63,26.63,0,0,1,290.69,383.39Z" style="opacity:0.1"></path><path d="M268.66,376.8a60.18,60.18,0,0,1,1,9.83l2.34-.87a6,6,0,0,1,6.48,1.47l.12.12a2.35,2.35,0,0,0,3.24.15h0a2.35,2.35,0,0,0,.8-1.7l.32-9.93Z" style="fill:#ffa8a7"></path><path d="M277.67,413.71c-4.84,5.18-13.76,9.71-20.24,5.29l.73,1.65c6.48,4.42,15.39-.11,20.24-5.29s1.7-8.77,6.05-13.36a15.79,15.79,0,0,0,3.77-5.6c-.19-.49-.38-1.14-.61-1.88a19.93,19.93,0,0,1-3.88,5.83C279.37,404.94,282.51,408.53,277.67,413.71Z" style="fill:#37474f"></path><path d="M285.23,389.11a9.46,9.46,0,0,1-1.53-3.53,2,2,0,0,0-.95-1.44l-.06,1.66a2.34,2.34,0,0,1-4,1.55l-.12-.12a6,6,0,0,0-6.48-1.47l-2.37.89a1.8,1.8,0,0,0-1.18,1.74c.15,6.8-3,15.82-6.35,20.77-3.42,1.42-6.38,6.08-4.87,9.5l.15.34c6.48,4.42,15.4-.11,20.24-5.29s1.7-8.77,6.06-13.36a19.93,19.93,0,0,0,3.88-5.83A21.13,21.13,0,0,0,285.23,389.11Z" style="fill:#455a64"></path><path d="M275.75,398.91a.83.83,0,0,0,.77-1.46,9.46,9.46,0,0,0-9.31,0c-.14.53-.29,1.07-.46,1.6A9.11,9.11,0,0,1,275.75,398.91Z" style="fill:#fff"></path><path d="M277,395.24a.83.83,0,0,0,.76-1.47,10,10,0,0,0-9.68.08c-.1.55-.21,1.11-.34,1.67C270.52,394,273.36,393.43,277,395.24Z" style="fill:#fff"></path><path d="M274.45,402.57a.83.83,0,0,0,.76-1.47,9.45,9.45,0,0,0-9.11-.09c-.2.57-.42,1.14-.64,1.69A9.12,9.12,0,0,1,274.45,402.57Z" style="fill:#fff"></path><path d="M262.15,409.16c-3.42,1.42-6.38,6.08-4.87,9.5l.15.34c6.38,4.35,15.13,0,20-5.06C273.37,405.94,264.84,407.94,262.15,409.16Z" style="fill:#fff"></path><path d="M273,406.14a.83.83,0,0,0,.76-1.47,9.41,9.41,0,0,0-9.12-.08c-.29.63-.58,1.24-.89,1.82C266.59,404.92,269.43,404.33,273,406.14Z" style="fill:#fff"></path><path d="M258.48,396.55a60.58,60.58,0,0,1-3,9.42l2.49.14a6,6,0,0,1,5.33,4l.06.16a2.35,2.35,0,0,0,2.91,1.44h0a2.35,2.35,0,0,0,1.42-1.22l4.29-9Z" style="fill:#ffa8a7"></path><path d="M251.83,434c-6.53,2.79-16.51,3.33-20.65-3.33v1.81c4.14,6.65,14.12,6.11,20.65,3.32s5.09-7.33,10.93-9.78a15.73,15.73,0,0,0,5.71-3.6c0-.53.11-1.19.2-2a19.82,19.82,0,0,1-5.91,3.76C256.92,426.62,258.35,431.17,251.83,434Z" style="fill:#37474f"></path><path d="M268.67,414.49a9.33,9.33,0,0,1,0-3.84,2,2,0,0,0-.29-1.71l-.72,1.51a2.36,2.36,0,0,1-4.33-.22l-.06-.16a6,6,0,0,0-5.33-4l-2.53-.14a1.81,1.81,0,0,0-1.79,1.12c-2.6,6.27-9.14,13.25-14.19,16.44-3.7-.09-8.28,3-8.28,6.72v.37c4.14,6.66,14.12,6.12,20.65,3.33s5.09-7.33,10.93-9.78a19.82,19.82,0,0,0,5.91-3.76A21.49,21.49,0,0,0,268.67,414.49Z" style="fill:#455a64"></path><path d="M256.05,419.64a.82.82,0,0,0,1.15.11.83.83,0,0,0,.14-1.14,9.49,9.49,0,0,0-8.52-3.75c-.35.44-.7.86-1.07,1.28A9.12,9.12,0,0,1,256.05,419.64Z" style="fill:#fff"></path><path d="M258.62,416.76a.82.82,0,0,0,1.15.11.81.81,0,0,0,.14-1.14,9.94,9.94,0,0,0-8.89-3.84c-.31.47-.64.93-1,1.39C253.23,413.06,256.07,413.66,258.62,416.76Z" style="fill:#fff"></path><path d="M253.37,422.46a.83.83,0,0,0,1.16.1.82.82,0,0,0,.13-1.14,9.45,9.45,0,0,0-8.29-3.76c-.42.45-.85.87-1.27,1.29A9.1,9.1,0,0,1,253.37,422.46Z" style="fill:#fff"></path><path d="M239.46,423.53c-3.7-.09-8.28,3-8.28,6.72v.37c4.08,6.56,13.82,6.13,20.35,3.45C251,425.11,242.42,423.49,239.46,423.53Z" style="fill:#fff"></path><path d="M250.62,425.14a.83.83,0,0,0,1.16.11.82.82,0,0,0,.13-1.14,9.41,9.41,0,0,0-8.31-3.76c-.52.46-1,.9-1.55,1.31C245.23,421.44,248.08,422,250.62,425.14Z" style="fill:#fff"></path><path d="M296.79,311.72l-32.64,18.19a16.16,16.16,0,0,0-8,17.08l6.34,34.12-5.2,16.51c4.48,6,14.77,6.31,14.77,6.31,5.74-11.51,10-16.4,13.21-26.05s5.44-16.3,5.44-16.3l27.11-7.41a32.1,32.1,0,0,0,23.48-27.33c.47-4.1.49-6.89.49-6.89Z" style="fill:#37474f"></path><path d="M297,320.89a15.41,15.41,0,0,0,3.65,9.95l-23,14.42a16.55,16.55,0,0,0-7.05,9.19l-8.15,26.66,7.35-29.69a13.42,13.42,0,0,1,6-8.21l21.26-13.15C294.89,324.63,297,320.89,297,320.89Z" style="opacity:0.2"></path><path d="M272.42,276.45l-4.57,4.43c-4.69-6-11-10-16.5-18.44-1.59-2-1.42-6-2.5-8.06-.84-1.6-2.32-4-2.94-5.36a.89.89,0,0,0-1.31-.39c-1.57,1.13-.74,3.85.08,6.71,1,3.35-4.09-1.19-4.77-2-3.2-3-6-10.3-8.14-9.57s-.46,4.37-.46,4.37c-2,.43-1.25,3.64-1.25,3.64-1.19,2.1-.85,5.33,1.59,8.34,1.78,2.18,6.58,5.18,9.07,6.65a8.15,8.15,0,0,1,2.6,2.46L259,292.58a9.5,9.5,0,0,0,13.58,2.3l8.51-6.37Z" style="fill:#ffa8a7"></path><path d="M299,255.88c-8.68-.38-20.47,13.71-27.11,20.35.51,8.12,9.25,13.45,9.25,13.45a188.84,188.84,0,0,0,17.86-14Z" style="fill:#455a64"></path><path d="M342.28,322.49c-5.79,5.56-33.6,6.59-47.79-6.92,1.36-9.54.91-19.76,0-29.86s-6.81-27.77,4.46-29.83c15.06-2.94,24.9-2.71,35,3C344.66,276.74,343.19,303.53,342.28,322.49Z" style="fill:#5965E0"></path><path d="M342.28,322.49c-5.79,5.56-33.6,6.59-47.79-6.92,1.36-9.54.91-19.76,0-29.86s-6.81-27.77,4.46-29.83c15.06-2.94,24.9-2.71,35,3C344.66,276.74,343.19,303.53,342.28,322.49Z" style="opacity:0.2"></path><path d="M272.39,320.08,265.19,291a4.56,4.56,0,0,0-2.13-2.85L225.71,266.6a.92.92,0,0,0-.44-.11h0a2.22,2.22,0,0,0-2.13,1.49h0a.87.87,0,0,0-.07.6l7.2,29.08a4.55,4.55,0,0,0,2.14,2.84l37.34,21.56a.87.87,0,0,0,.62.1h0a2.73,2.73,0,0,0,1.95-1.48s0-.05,0-.08l0,0h0A.93.93,0,0,0,272.39,320.08Z" style="fill:#455a64"></path><path d="M271.1,321.05,263.9,292a4.51,4.51,0,0,0-2.13-2.84l-37.35-21.57a.9.9,0,0,0-1.27.41.87.87,0,0,0-.07.6l7.2,29.08a4.55,4.55,0,0,0,2.14,2.84l37.34,21.56a.87.87,0,0,0,.62.1A.9.9,0,0,0,271.1,321.05Z" style="opacity:0.2"></path><path d="M314.47,289.68l-5.91,14.65c-9.31-.57-21,3.63-27.81,3.06-2.72-.37-4.85-3.15-12.5-4l1.22,4.92c-4.88,1-10.78-5.82-13.28-4.72s1,3.63,1,3.63c-.9,3.18,2,5.17,2,5.17,0,3.08,2.84,5.68,9.94,7.36,3.75.76,7.79-.72,11.26-.72,2.65,0,24.85-.49,35.06-.72a8.21,8.21,0,0,0,7.26-4.74l7.78-16.71Z" style="fill:#ffa8a7"></path><path d="M328,256.14c-6.88,7-15.16,34.91-15.16,34.91,4.65,7.6,17.82,7.83,17.82,7.83C344.32,266.3,343.19,259.37,328,256.14Z" style="fill:#455a64"></path><path d="M326.72,233.13a4.16,4.16,0,0,0-2-2.11,3.07,3.07,0,0,0-.6-.22,3.76,3.76,0,0,0-3.35,1.12,6.49,6.49,0,0,0-1.63,3.25,24.71,24.71,0,0,0-.41,3.65,42.43,42.43,0,0,1-1,6.45,8.19,8.19,0,0,1-4.17,5.45l-.14.08a25.44,25.44,0,0,1-9.75,2.59v3.7c-2.68,3.66-3.44,10.65,3.65,8.56s11.7-6.8,11.7-11.43c0-2,.09-4.47.14-6.72.07-3,.13-5.55.13-5.55a4,4,0,0,0,2.58,1.35,3.41,3.41,0,0,0,1.36-.07,5.09,5.09,0,0,0,3-2.58,9.58,9.58,0,0,0,1-4A8,8,0,0,0,326.72,233.13Z" style="fill:#ffa8a7"></path><path d="M324.42,220.34a8.76,8.76,0,0,0-5.57-3l-29.1,2.7c-3.36,7.11-.68,11.81-.68,11.81-.45,10.85-.83,17.74,3.94,20,2.6,1.24,6.55,1.77,10.63,1.47a25.44,25.44,0,0,0,9.75-2.59l.15-.08a8.21,8.21,0,0,0,4.17-5.48,43.3,43.3,0,0,0,1-6.42,24.71,24.71,0,0,1,.41-3.65,6.49,6.49,0,0,1,1.63-3.25,3.76,3.76,0,0,1,3.35-1.12,3.07,3.07,0,0,1,.6.22C325.53,226.21,325.77,222,324.42,220.34Z" style="fill:#37474f"></path><path d="M313.76,221.17a10,10,0,0,0,.38,6.09,41.8,41.8,0,0,1,1.85,5.92,9.61,9.61,0,0,1-.8,6,7,7,0,0,1-4.63,3.7c-3.13.66-6.18-1.16-9.32-1.77a13.08,13.08,0,0,0-8.76,1.55,1.52,1.52,0,0,1-2.29-1.21c-.37-6.24-.36-16,.56-20.62Z" style="fill:#ffa8a7"></path><path d="M291.24,215.51,287.63,213a7.62,7.62,0,0,0,1.38,7.12,11.52,11.52,0,0,0,6.38,3.76,24.42,24.42,0,0,0,7.49.34,55.22,55.22,0,0,0,10.83-2A8.77,8.77,0,0,0,318,220a5.64,5.64,0,0,0,.22-6.63,8.41,8.41,0,0,0-6-3.46,22.72,22.72,0,0,0-7.2.56,21.63,21.63,0,0,1-7.2.52,7.54,7.54,0,0,1-5.81-3.84C290,210.46,291.24,215.51,291.24,215.51Z" style="fill:#37474f"></path><polygon points="300.37 232.24 295.07 238.66 299.94 240.38 300.37 232.24" style="fill:#f28f8f"></polygon><path d="M304.39,243.57l-4.1,1.26a2.5,2.5,0,0,0,2.76,1.27A2.26,2.26,0,0,0,304.39,243.57Z" style="fill:#f28f8f"></path><path d="M304.39,243.57l-4.1,1.26a2.5,2.5,0,0,0,2.76,1.27A2.26,2.26,0,0,0,304.39,243.57Z" style="opacity:0.30000000000000004"></path><path d="M301.71,246a2.21,2.21,0,0,0,1.34.08,2,2,0,0,0,1.33-1.85,2.48,2.48,0,0,0-1.58.29A2.45,2.45,0,0,0,301.71,246Z" style="fill:#f28f8f"></path><path d="M307.59,233.64a1.46,1.46,0,1,1-1.38-1.53A1.45,1.45,0,0,1,307.59,233.64Z" style="fill:#263238"></path><path d="M295.4,232.52A1.46,1.46,0,1,1,294,231,1.47,1.47,0,0,1,295.4,232.52Z" style="fill:#263238"></path><path d="M294.29,226.65l-3.35,2.06a2.09,2.09,0,0,1,.76-2.25A2.46,2.46,0,0,1,294.29,226.65Z" style="fill:#263238"></path><path d="M306.76,227.14l3.11,2.41a2.07,2.07,0,0,0-.51-2.32A2.48,2.48,0,0,0,306.76,227.14Z" style="fill:#263238"></path><path d="M315.35,250.6a9.27,9.27,0,0,0,1.69-3.52,8.08,8.08,0,0,1-3.51,3.64l-.14.08a25.44,25.44,0,0,1-9.75,2.59v2.49a24,24,0,0,0,5.76-1.21A13,13,0,0,0,315.35,250.6Z" style="opacity:0.2"></path><path d="M323.46,234.09a2.68,2.68,0,0,0-2.47,2.42,11.79,11.79,0,0,1-.91,3.07,11.23,11.23,0,0,1-7.6,6,1.18,1.18,0,0,0-.91,1.15,1.2,1.2,0,0,0,1.36,1.19c7.24-.92,8.78-4.24,10.29-7.78l.24,0a3.08,3.08,0,0,0,0-6Z" style="fill:#e0e0e0"></path><path d="M313.79,246a11.24,11.24,0,0,0,7.59-6,11.42,11.42,0,0,0,.91-3.07,2.7,2.7,0,0,1,2.48-2.42h.06a2.23,2.23,0,0,0-1.37-.49,2.68,2.68,0,0,0-2.47,2.42,11.79,11.79,0,0,1-.91,3.07,11.23,11.23,0,0,1-7.6,6,1.18,1.18,0,0,0-.91,1.15,1.2,1.2,0,0,0,1.36,1.19l.17,0a1.12,1.12,0,0,1-.22-.67A1.18,1.18,0,0,1,313.79,246Z" style="fill:#fff"></path><path d="M325.38,237.3c0,.7-.39,1.26-.88,1.26s-.88-.56-.88-1.26.39-1.26.88-1.26S325.38,236.6,325.38,237.3Z" style="fill:#5965E0"></path></g></svg>